<svg xmlns="http://www.w3.org/2000/svg" xmlns:xlink="http://www.w3.org/1999/xlink" viewBox="0,0,256,256" width="96px" height="96px"><g fill="#fffefe" fill-rule="nonzero" stroke="none" stroke-width="1" stroke-linecap="butt" stroke-linejoin="miter" stroke-miterlimit="10" stroke-dasharray="" stroke-dashoffset="0" font-family="none" font-weight="none" font-size="none" text-anchor="none" style="mix-blend-mode: normal"><g transform="scale(4,4)"><path d="M40.227,12c10.919,0 11.773,0.854 11.773,11.773v16.453c0,10.919 -0.854,11.774 -11.773,11.774h-16.454c-10.919,0 -11.773,-0.855 -11.773,-11.773v-16.454c0,-10.919 0.854,-11.773 11.773,-11.773zM26.285,39.41c4.092,0 7.41,-3.318 7.41,-7.41c0,-4.092 -3.318,-7.41 -7.41,-7.41c-4.092,0 -7.41,3.318 -7.41,7.41c0,4.092 3.318,7.41 7.41,7.41zM38.103,39.052c2.026,0 3.667,-3.157 3.667,-7.052c0,-3.895 -1.642,-7.052 -3.667,-7.052c-2.025,0 -3.667,3.157 -3.667,7.052c0,3.894 1.642,7.052 3.667,7.052zM43.8,38.299c0.704,0 1.275,-2.82 1.275,-6.299c0,-3.479 -0.571,-6.299 -1.275,-6.299c-0.705,0 -1.276,2.82 -1.276,6.299c0,3.479 0.572,6.299 1.276,6.299z"></path></g></g></svg>